<svg xmlns="http://www.w3.org/2000/svg" xmlns:xlink="http://www.w3.org/1999/xlink" version="1.1" width="1080" height="1080" viewBox="0 0 1080 1080" xml:space="preserve">
<desc>Created with Fabric.js 3.5.0</desc>
<defs>
</defs>
<rect x="0" y="0" width="100%" height="100%" fill="#ffffff"/>
<g transform="matrix(1.998 0 0 1.998 529.1363 540.0015)" id="506530">
<g style="" vector-effect="non-scaling-stroke">
		<g transform="matrix(1 0 0 1 -0.0001 -0.0005)" id="Layer_1">
<path style="stroke: none; stroke-width: 1; stroke-dasharray: none; stroke-linecap: butt; stroke-dashoffset: 0; stroke-linejoin: miter; stroke-miterlimit: 4; is-custom-font: none; font-file-url: none; fill: rgb(0,0,0); fill-rule: nonzero; opacity: 1;" transform=" translate(-245.7009, -245.7005)" d="M 490.86 113.163 l -0.8 -6.7 l -6.48 -1.91 c -85.26 -25.11 -117.45 -57.86 -117.73 -58.155 l -7.42 -7.785 l -7.44 7.75 c -0.244 0.252 -19.177 19.418 -66.048 39.646 c -27.738 -14.573 -58.841 -22.341 -90.382 -22.341 C 87.28 63.668 0 150.948 0 258.228 s 87.28 194.56 194.56 194.56 c 88.252 0 164.666 -58.795 187.629 -143.468 C 504.841 244.012 491.022 114.528 490.86 113.163 z M 137.213 94.055 c -11.909 13.92 -22.154 32.032 -30.089 53.439 c -9.673 -5.644 -18.826 -12.245 -27.375 -19.779 C 96.407 113.043 115.847 101.542 137.213 94.055 z M 65.207 142.141 c 10.984 9.818 22.827 18.354 35.475 25.346 c -6.778 24.136 -10.82 51.385 -11.609 80.502 H 20.999 C 23.377 207.407 39.647 170.592 65.207 142.141 z M 20.999 268.468 h 68.074 c 0.785 28.963 4.795 56.071 11.509 80.112 c -12.696 7.029 -24.582 15.611 -35.599 25.488 C 39.55 345.652 23.37 308.932 20.999 268.468 z M 79.501 388.517 c 8.578 -7.587 17.764 -14.235 27.477 -19.916 c 7.954 21.569 18.256 39.801 30.235 53.801 C 115.739 414.877 96.215 403.293 79.501 388.517 z M 184.32 430.855 c -23.844 -6.141 -44.951 -33.284 -58.668 -71.8 c 18.422 -7.946 38.209 -12.554 58.668 -13.738 V 430.855 z M 184.32 324.837 c -22.561 1.167 -44.444 5.972 -64.832 14.496 c -5.711 -21.492 -9.182 -45.562 -9.945 -70.864 h 74.777 V 324.837 z M 184.32 247.988 h -74.777 c 0.768 -25.457 4.27 -49.677 10.042 -71.269 c 20.36 8.5 42.211 13.285 64.735 14.451 V 247.988 z M 184.32 170.69 c -20.406 -1.181 -40.145 -5.763 -58.526 -13.671 c 13.72 -38.311 34.761 -65.297 58.526 -71.417 V 170.69 z M 258.513 96.325 c -1.232 0.436 -2.499 0.869 -3.758 1.302 c -0.999 -1.264 -1.982 -2.577 -3.001 -3.773 C 254.019 94.642 256.281 95.445 258.513 96.325 z M 204.8 85.606 c 11.486 2.964 21.261 10.417 28.958 18.78 c -0.186 0.055 -0.351 0.112 -0.538 0.167 l -6.48 1.91 l -0.8 6.7 c -0.068 0.568 -2.486 23.376 3.519 54.481 c -8.111 1.649 -16.348 2.737 -24.659 3.22 V 85.606 z M 204.8 191.343 c 9.936 -0.518 19.784 -1.793 29.472 -3.801 c 5.611 19.231 14.688 40.203 29.129 60.446 H 204.8 V 191.343 z M 204.8 268.468 h 74.806 c -0.747 25.444 -4.243 49.452 -9.886 70.897 c -20.41 -8.546 -42.322 -13.359 -64.919 -14.528 V 268.468 z M 204.8 430.877 v -85.56 c 20.553 1.188 40.424 5.836 58.913 13.845 C 250.027 397.858 228.818 424.807 204.8 430.877 z M 251.094 422.918 c 12.195 -14.1 22.687 -32.609 30.811 -54.464 c 9.886 5.761 19.224 12.529 27.934 20.262 C 292.796 403.76 272.899 415.472 251.094 422.918 z M 324.392 374.304 c -11.146 -10.031 -23.181 -18.745 -36.053 -25.851 c 5.399 -19.12 9.173 -40.081 10.878 -62.411 c 15.134 12.298 33.29 23.508 55.173 32.811 l 2.824 1.198 C 349.542 340.346 338.374 358.661 324.392 374.304 z M 358.4 298.258 c -110.28 -49.215 -113.76 -149.275 -112.6 -176.105 c 64.29 -19.84 98.69 -43.595 112.6 -54.995 c 13.9 11.395 48.29 35.14 112.53 54.97 C 471.8 148.708 467.54 249.498 358.4 298.258 z" stroke-linecap="round"/>
</g>
		<g transform="matrix(1 0 0 1 112.714 -60.998)" id="Layer_1">
<path style="stroke: none; stroke-width: 1; stroke-dasharray: none; stroke-linecap: butt; stroke-dashoffset: 0; stroke-linejoin: miter; stroke-miterlimit: 4; is-custom-font: none; font-file-url: none; fill: rgb(0,0,0); fill-rule: nonzero; opacity: 1;" transform=" translate(-358.415, -184.703)" d="M 432.22 141.408 c -25.82 -9.65 -48.84 -20.7 -68.42 -32.84 l -5.4 -3.345 l -5.4 3.345 c -19.55 12.125 -42.57 23.17 -68.4 32.825 l -7.77 2.905 l 1.23 8.21 c 4.92 32.65 21.96 78.015 75.22 108.725 l 5.12 2.95 l 5.11 -2.95 c 53.3 -30.72 70.34 -76.075 75.26 -108.71 l 1.23 -8.21 L 432.22 141.408 z M 358.4 240.413 c -38.14 -23.97 -53.09 -56.785 -58.63 -82.905 c 21.61 -8.495 41.27 -17.97 58.63 -28.26 c 17.38 10.3 37.05 19.785 58.66 28.275 C 411.52 183.633 396.57 216.433 358.4 240.413 z" stroke-linecap="round"/>
</g>
</g>
</g>
</svg>